Coordinates
version=1
nRows=16
nColumns=40
inDegrees=yes

Units are S.I. units (second, meters, Newtons, ...)
Angles are in degrees.

endheader
time	pelvis_tilt	pelvis_list	pelvis_rotation	pelvis_tx	pelvis_ty	pelvis_tz	hip_flexion_r	hip_adduction_r	hip_rotation_r	knee_angle_r	knee_angle_r_beta	ankle_angle_r	subtalar_angle_r	mtp_angle_r	hip_flexion_l	hip_adduction_l	hip_rotation_l	knee_angle_l	knee_angle_l_beta	ankle_angle_l	subtalar_angle_l	mtp_angle_l	lumbar_extension	lumbar_bending	lumbar_rotation	arm_flex_r	arm_add_r	arm_rot_r	elbow_flex_r	pro_sup_r	wrist_flex_r	wrist_dev_r	arm_flex_l	arm_add_l	arm_rot_l	elbow_flex_l	pro_sup_l	wrist_flex_l	wrist_dev_l
     31.13500000	     -4.80394689	     -4.21008941	     -0.85411583	      1.09227309	      0.90869209	      0.47786248	      1.51108876	     -1.58952986	     -9.80697093	     32.90365164	     32.90365164	     14.79454181	     -9.28512134	    -14.67856432	     30.93216413	     -8.34163635	     -2.59967127	     32.86950807	     32.86950807	      9.55097471	    -16.40860709	      5.88840847	     -9.68509256	      4.90103293	      3.61577699	     37.89630777	    -16.22523459	     -1.16648182	    122.91146425	     43.95726966	      0.00000000	      0.00000000	     -7.63460493	     -8.69352526	     -2.87880767	     21.84636427	     45.61087830	      0.00000000	      0.00000000
     31.14571429	     -4.66137655	     -3.86991470	     -0.77068604	      1.09224961	      0.91027921	      0.47552867	      3.07738138	     -2.53132796	     -9.85620718	     36.84805929	     36.84805929	     12.98528908	    -10.97880326	    -14.91842022	     29.94920337	     -7.85081431	     -2.92040426	     32.58048086	     32.58048086	     10.18145543	    -16.16281146	      5.58865547	     -9.78595154	      4.60112897	      3.16882744	     36.07957093	    -15.92258499	     -0.62809050	    122.79561707	     43.93852514	      0.00000000	      0.00000000	     -6.66978807	     -8.58906250	     -2.83093144	     22.29369815	     45.62277077	      0.00000000	      0.00000000
     31.15642857	     -4.77878622	     -3.65706554	     -0.71786233	      1.09186527	      0.91158736	      0.47348916	      5.03287939	     -3.18665453	     -9.60931644	     40.63434126	     40.63434126	      9.45784027	    -14.45797028	    -17.75374574	     29.16847181	     -7.48527807	     -3.15373909	     32.04938078	     32.04938078	     10.38869916	    -16.10385221	      4.80520893	     -9.64586309	      4.39820758	      3.31891001	     33.65149461	    -16.39495704	     -0.56931494	    123.54538220	     43.95643190	      0.00000000	      0.00000000	     -5.59822855	     -8.50881274	     -2.59566952	     23.27787952	     45.63305304	      0.00000000	      0.00000000
     31.16714286	     -4.68737897	     -3.32249009	     -0.62813855	      1.09145303	      0.91309606	      0.47129766	      6.91439176	     -4.19509315	     -9.79924603	     44.73450619	     44.73450619	      6.92528822	    -16.11357430	    -17.35238635	     28.18547937	     -6.98374862	     -3.44022958	     31.59351213	     31.59351213	     10.84459447	    -15.85549067	      4.60537481	     -9.72086219	      4.13374716	      2.90111962	     31.63201974	    -16.12222476	     -0.05349345	    123.14041200	     43.94586102	      0.00000000	      0.00000000	     -4.52107498	     -8.40406071	     -2.55876608	     23.84326194	     45.64737025	      0.00000000	      0.00000000
     31.17785714	     -4.61152318	     -3.08417018	     -0.53707617	      1.09090182	      0.91449361	      0.46926101	      8.85556106	     -5.11657048	    -10.03059343	     48.70548135	     48.70548135	      4.14794568	    -17.64311032	    -16.58353604	     27.21820333	     -6.55150399	     -3.54563527	     31.10105278	     31.10105278	     11.32328967	    -15.67127096	      4.39562449	     -9.83512217	      3.92689709	      2.50223345	     29.55144704	    -15.98462360	      0.39023446	    122.65428013	     43.93936179	      0.00000000	      0.00000000	     -3.34557672	     -8.23561880	     -2.53851101	     24.56331423	     45.66429303	      0.00000000	      0.00000000
     31.18857143	     -4.76311885	     -2.81544913	     -0.55724660	      1.09012687	      0.91558015	      0.46747053	     11.35936968	     -5.91092696	     -9.82171087	     53.01770465	     53.01770465	      2.83635674	    -18.22963895	    -10.47451704	     26.43098325	     -6.10002024	     -3.69534237	     30.43415298	     30.43415298	     11.32161654	    -15.93142537	      3.77901006	     -9.69953682	      3.70513164	      2.87172508	     26.58670595	    -16.41320187	     -0.13488767	    122.52258818	     43.98500326	      0.00000000	      0.00000000	     -2.44969081	     -8.22570566	     -2.53227789	     26.74336935	     45.68269213	      0.00000000	      0.00000000
     31.19928571	     -4.66792315	     -2.52355958	     -0.46942020	      1.08942464	      0.91681567	      0.46550057	     13.30703490	     -6.99545378	    -10.12751269	     56.56320733	     56.56320733	      0.13369105	    -18.86865731	     -9.22229606	     25.48665820	     -5.62604676	     -3.85125399	     29.98778919	     29.98778919	     11.74393564	    -15.73945817	      3.60558712	     -9.85027893	      3.49743892	      2.44104913	     24.40951567	    -16.11146672	      0.36060225	    121.60144906	     43.98956852	      0.00000000	      0.00000000	     -1.15160578	     -8.09888555	     -2.48331194	     27.45361278	     45.69691915	      0.00000000	      0.00000000
     31.21000000	     -4.72386706	     -2.41259553	     -0.48962835	      1.08849747	      0.91783972	      0.46405730	     15.84121469	     -7.39775592	     -9.64002580	     60.48941746	     60.48941746	      0.30421685	    -18.85126239	      0.99784722	     24.66164323	     -5.34291833	     -3.82302172	     29.39634814	     29.39634814	     11.83142049	    -15.96573571	      3.20242295	     -9.80511735	      3.45178335	      2.53206357	     21.75910728	    -16.04819608	     -0.40670038	    119.74714279	     44.09498413	      0.00000000	      0.00000000	     -0.31711018	     -8.09138040	     -2.25731601	     29.71293641	     45.68034607	      0.00000000	      0.00000000
     31.22071429	     -4.69433600	     -2.16419113	     -0.48536188	      1.08769226	      0.91884320	      0.46240730	     17.83773430	     -8.27244234	     -9.64821947	     63.35921878	     63.35921878	     -1.77558051	    -19.07726424	      2.29396522	     23.76940696	     -4.94162525	     -3.96778937	     28.89277610	     28.89277610	     12.21208087	    -15.83272333	      3.05940937	     -9.89490146	      3.31147710	      2.24714994	     19.38703695	    -15.93520030	      0.03310948	    118.36179990	     44.11725394	      0.00000000	      0.00000000	      0.96012193	     -7.99573192	     -2.19154483	     30.58517909	     45.69237146	      0.00000000	      0.00000000
     31.23142857	     -4.66677834	     -2.10440675	     -0.48354345	      1.08679543	      0.91984971	      0.46113990	     19.99070685	     -8.55075397	     -9.22766155	     66.11820973	     66.11820973	     -1.92750538	    -19.10364243	      8.74620870	     22.90281471	     -4.73205259	     -3.91747813	     28.37670840	     28.37670840	     12.33708267	    -15.95573603	      2.60627014	     -9.96589442	      3.33244513	      2.06501775	     17.14013808	    -15.40680336	     -0.84618775	    115.66199905	     44.25363523	      0.00000000	      0.00000000	      1.75371249	     -8.10186280	     -1.68234473	     33.06114665	     45.64594470	      0.00000000	      0.00000000
     31.24214286	     -4.59811461	     -2.01478446	     -0.54695656	      1.08605566	      0.92088118	      0.45997186	     21.79267320	     -8.92257128	     -8.93915001	     68.08539365	     68.08539365	     -3.24757066	    -19.16597933	      9.19161285	     21.99212002	     -4.55257641	     -4.05914365	     27.92377727	     27.92377727	     12.72985523	    -15.78838433	      2.48840005	    -10.10518903	      3.38038901	      2.02361767	     14.71881067	    -15.39466866	     -0.48842593	    113.73425845	     44.29494465	      0.00000000	      0.00000000	      3.14789133	     -7.98380848	     -1.61851103	     34.08315113	     45.66071202	      0.00000000	      0.00000000
     31.25285714	     -4.53084881	     -2.01517512	     -0.65530642	      1.08527936	      0.92195030	      0.45905028	     23.55599406	     -9.00304969	     -8.51948776	     69.65796152	     69.65796152	     -3.94634674	    -19.15950341	      9.92653648	     21.05223908	     -4.46241577	     -4.11202278	     27.40103080	     27.40103080	     12.99041251	    -15.79974450	      2.29022504	    -10.21503084	      3.46515650	      2.18470307	     12.59047891	    -15.34390463	     -1.20485201	    110.20404835	     44.42824228	      0.00000000	      0.00000000	      4.39080743	     -7.90478466	     -1.38441053	     35.85992096	     45.65671663	      0.00000000	      0.00000000
     31.26357143	     -4.47717938	     -2.05270400	     -0.80838219	      1.08457544	      0.92300162	      0.45843865	     25.23579990	     -8.87769205	     -8.00011339	     70.76730877	     70.76730877	     -4.26062697	    -19.08304963	     10.14413992	     20.10149990	     -4.46024621	     -4.25758572	     26.84437085	     26.84437085	     13.26155269	    -15.68866375	      1.96144909	    -10.30778095	      3.56742440	      2.15325859	     10.67114736	    -14.85478838	     -1.99239017	    106.41894437	     44.57362177	      0.00000000	      0.00000000	      5.44316561	     -7.96092897	     -0.98388265	     37.91699499	     45.63612488	      0.00000000	      0.00000000
     31.27428571	     -4.45386941	     -2.10857149	     -1.01013072	      1.08398985	      0.92404415	      0.45807386	     26.83196471	     -8.63730462	     -7.48737502	     71.41034801	     71.41034801	     -4.32684875	    -18.96600210	      9.57621745	     19.12526995	     -4.50793610	     -4.49216333	     26.20437738	     26.20437738	     13.42722527	    -15.55442329	      1.46082821	    -10.35670227	      3.70359443	      1.88747015	      9.20655279	    -14.07493090	     -2.79267226	    102.14930157	     44.73990544	      0.00000000	      0.00000000	      6.13604852	     -8.31048124	     -0.21987778	     40.45683469	     45.58564488	      0.00000000	      0.00000000
     31.28500000	     -4.37363296	     -2.15051423	     -1.29464161	      1.08355958	      0.92514362	      0.45785443	     28.27834855	     -8.35115334	     -6.96220971	     71.62685541	     71.62685541	     -4.01365118	    -18.77084282	      9.03748950	     18.04522833	     -4.55301278	     -4.80876207	     25.54043871	     25.54043871	     13.74890725	    -15.37121310	      1.33113173	    -10.48161458	      3.85469008	      2.36356474	      7.08756840	    -14.29780706	     -2.83483095	     98.91334747	     44.83689382	      0.00000000	      0.00000000	      7.53095466	     -8.11907372	     -0.05618367	     42.01163591	     45.59884881	      0.00000000	      0.00000000
     31.29571429	     -4.29874830	     -2.24408385	     -1.61476045	      1.08317432	      0.92624542	      0.45792805	     29.56979262	     -7.98568593	     -6.53958760	     71.33211112	     71.33211112	     -3.70833243	    -18.57829919	      7.54316436	     16.93597764	     -4.67757451	     -5.15050999	     24.82037449	     24.82037449	     13.88636569	    -15.17547050	      0.77331004	    -10.57245144	      3.97403217	      2.08900470	      6.44185141	    -13.25903173	     -4.13160978	     92.96584239	     45.06782994	      0.00000000	      0.00000000	      8.09878989	     -8.63131849	      0.81556467	     44.86475832	     45.55571882	      0.00000000	      0.00000000
